<svg id="mermaid-1611355672329" width="607.5859375" xmlns="http://www.w3.org/2000/svg" xmlns:xlink="http://www.w3.org/1999/xlink" height="504" viewBox="-20 -20 607.5859375 504"><style>#mermaid-1611355672329{font-family:"trebuchet ms",verdana,arial;font-size:16px;fill:#333;}#mermaid-1611355672329 .error-icon{fill:#552222;}#mermaid-1611355672329 .error-text{fill:#552222;stroke:#552222;}#mermaid-1611355672329 .edge-thickness-normal{stroke-width:2px;}#mermaid-1611355672329 .edge-thickness-thick{stroke-width:3.5px;}#mermaid-1611355672329 .edge-pattern-solid{stroke-dasharray:0;}#mermaid-1611355672329 .edge-pattern-dashed{stroke-dasharray:3;}#mermaid-1611355672329 .edge-pattern-dotted{stroke-dasharray:2;}#mermaid-1611355672329 .marker{fill:#333333;}#mermaid-1611355672329 .marker.cross{stroke:#333333;}#mermaid-1611355672329 svg{font-family:"trebuchet ms",verdana,arial;font-size:16px;}#mermaid-1611355672329 g.classGroup text{fill:#9370DB;fill:#131300;stroke:none;font-family:"trebuchet ms",verdana,arial;font-size:10px;}#mermaid-1611355672329 g.classGroup text .title{font-weight:bolder;}#mermaid-1611355672329 .node rect,#mermaid-1611355672329 .node circle,#mermaid-1611355672329 .node ellipse,#mermaid-1611355672329 .node polygon,#mermaid-1611355672329 .node path{fill:#ECECFF;stroke:#9370DB;stroke-width:1px;}#mermaid-1611355672329 .divider{stroke:#9370DB;stroke:1;}#mermaid-1611355672329 g.clickable{cursor:pointer;}#mermaid-1611355672329 g.classGroup rect{fill:#ECECFF;stroke:#9370DB;}#mermaid-1611355672329 g.classGroup line{stroke:#9370DB;stroke-width:1;}#mermaid-1611355672329 .classLabel .box{stroke:none;stroke-width:0;fill:#ECECFF;opacity:0.5;}#mermaid-1611355672329 .classLabel .label{fill:#9370DB;font-size:10px;}#mermaid-1611355672329 .relation{stroke:#333333;stroke-width:1;fill:none;}#mermaid-1611355672329 .dashed-line{stroke-dasharray:3;}#mermaid-1611355672329 #compositionStart,#mermaid-1611355672329 .composition{fill:#333333 !important;stroke:#333333 !important;stroke-width:1;}#mermaid-1611355672329 #compositionEnd,#mermaid-1611355672329 .composition{fill:#333333 !important;stroke:#333333 !important;stroke-width:1;}#mermaid-1611355672329 #dependencyStart,#mermaid-1611355672329 .dependency{fill:#333333 !important;stroke:#333333 !important;stroke-width:1;}#mermaid-1611355672329 #dependencyStart,#mermaid-1611355672329 .dependency{fill:#333333 !important;stroke:#333333 !important;stroke-width:1;}#mermaid-1611355672329 #extensionStart,#mermaid-1611355672329 .extension{fill:#333333 !important;stroke:#333333 !important;stroke-width:1;}#mermaid-1611355672329 #extensionEnd,#mermaid-1611355672329 .extension{fill:#333333 !important;stroke:#333333 !important;stroke-width:1;}#mermaid-1611355672329 #aggregationStart,#mermaid-1611355672329 .aggregation{fill:#ECECFF !important;stroke:#333333 !important;stroke-width:1;}#mermaid-1611355672329 #aggregationEnd,#mermaid-1611355672329 .aggregation{fill:#ECECFF !important;stroke:#333333 !important;stroke-width:1;}#mermaid-1611355672329:root{--mermaid-font-family:"trebuchet ms",verdana,arial;}#mermaid-1611355672329 class{fill:apa;}</style><g/><defs><marker id="extensionStart" class="extension" refX="0" refY="7" markerWidth="190" markerHeight="240" orient="auto"><path d="M 1,7 L18,13 V 1 Z"/></marker></defs><defs><marker id="extensionEnd" refX="19" refY="7" markerWidth="20" markerHeight="28" orient="auto"><path d="M 1,1 V 13 L18,7 Z"/></marker></defs><defs><marker id="compositionStart" class="extension" refX="0" refY="7" markerWidth="190" markerHeight="240" orient="auto"><path d="M 18,7 L9,13 L1,7 L9,1 Z"/></marker></defs><defs><marker id="compositionEnd" refX="19" refY="7" markerWidth="20" markerHeight="28" orient="auto"><path d="M 18,7 L9,13 L1,7 L9,1 Z"/></marker></defs><defs><marker id="aggregationStart" class="extension" refX="0" refY="7" markerWidth="190" markerHeight="240" orient="auto"><path d="M 18,7 L9,13 L1,7 L9,1 Z"/></marker></defs><defs><marker id="aggregationEnd" refX="19" refY="7" markerWidth="20" markerHeight="28" orient="auto"><path d="M 18,7 L9,13 L1,7 L9,1 Z"/></marker></defs><defs><marker id="dependencyStart" class="extension" refX="0" refY="7" markerWidth="190" markerHeight="240" orient="auto"><path d="M 5,7 L9,13 L1,7 L9,1 Z"/></marker></defs><defs><marker id="dependencyEnd" refX="19" refY="7" markerWidth="20" markerHeight="28" orient="auto"><path d="M 18,7 L9,13 L14,7 L9,1 Z"/></marker></defs><g id="classid-DynamicForm-6" class="classGroup" transform="translate(142.484375,0 )"><rect x="0" y="0" width="189.859375" height="148" class=" "/><text y="15" x="0"><tspan class="title" x="60.53125">DynamicForm</tspan></text><line x1="0" y1="21" y2="21" x2="189.859375"/><text x="5" y="31" fill="white" class="classText"><tspan x="5">JSON config</tspan><tspan x="5" dy="10">node htmlElement</tspan><tspan x="5" dy="10">Map&lt;String, DynamicElement&gt; entities</tspan><tspan x="5" dy="10">bool debug</tspan><tspan x="5" dy="10">json elementToClassMapping</tspan></text><line x1="0" y1="77" y2="77" x2="189.859375"/><text x="5" y="92" fill="white" class="classText"><tspan x="5">notify(subjectName)</tspan><tspan x="5" dy="10">fetchAllParameters(rule) : object</tspan><tspan x="5" dy="10">clearCascade(currentSubject)</tspan><tspan x="5" dy="10">manualUpdate(data, subjectName)</tspan><tspan x="5" dy="10">getField(name) : DynamicElement</tspan><tspan x="5" dy="10">getId() : string</tspan></text></g><g id="classid-dynamicForms-7" class="classGroup" transform="translate(0,228 )"><rect x="0" y="0" width="290.90625" height="88" class=" "/><text y="15" x="0"><tspan class="title" x="108.6640625">dynamicForms</tspan></text><line x1="0" y1="21" y2="21" x2="290.90625"/><text x="5" y="31" fill="white" class="classText"><tspan x="5">-Map&lt;String, DynamicForm&gt; formCollection</tspan></text><line x1="0" y1="37" y2="37" x2="290.90625"/><text x="5" y="52" fill="white" class="classText"><tspan x="5">+makeForm(formConfiguration) : DynamicForm</tspan><tspan x="5" dy="10">+makeMultipleForms(formsConfigCollection) : DynamicForm[]</tspan><tspan x="5" dy="10">+getForm(id) : DynamicForm</tspan><tspan x="5" dy="10">+getField(formId, fieldName) : DynamicElement</tspan></text></g><g id="classid-DynamicElement-8" class="classGroup" transform="translate(340.90625,198 )"><rect x="0" y="0" width="200.5" height="148" class=" "/><text y="15" x="0"><tspan class="title" x="58.6171875">DynamicElement</tspan></text><line x1="0" y1="21" y2="21" x2="200.5"/><text x="5" y="31" fill="white" class="classText"><tspan x="5">-JSON config</tspan><tspan x="5" dy="10">-node htmlElement</tspan><tspan x="5" dy="10">-string name</tspan><tspan x="5" dy="10">-JSON defaultConfig</tspan></text><line x1="0" y1="67" y2="67" x2="200.5"/><text x="5" y="82" fill="white" class="classText"><tspan x="5">+get() : string</tspan><tspan x="5" dy="10">+set(value) : string</tspan><tspan x="5" dy="10">+clear()</tspan><tspan x="5" dy="10">+update(data, subjectName)</tspan><tspan x="5" dy="10">+beforeUpdate(data, subjectName) : bool</tspan><tspan x="5" dy="10">+updateStatus(data, subjectName)</tspan><tspan x="5" dy="10">+afterUpdate(data, subjectName)</tspan></text></g><g id="classid-DynamicDropdown-9" class="classGroup" transform="translate(118.3828125,396 )"><rect x="0" y="0" width="165.921875" height="68" class=" "/><text y="15" x="0"><tspan class="title" x="36.453125">DynamicDropdown</tspan></text><line x1="0" y1="21" y2="21" x2="165.921875"/><text x="5" y="31" fill="white" class="classText"><tspan x="5">-string method</tspan></text><line x1="0" y1="37" y2="37" x2="165.921875"/><text x="5" y="52" fill="white" class="classText"><tspan x="5">+postProcessData(data) : object[]</tspan><tspan x="5" dy="10">+saveData(data) : object[]</tspan></text></g><g id="classid-DynamicCheckbox-10" class="classGroup" transform="translate(334.3046875,415 )"><rect x="0" y="0" width="101.921875" height="30" class=" "/><text y="15" x="0"><tspan class="title" x="5">DynamicCheckbox</tspan></text><line x1="0" y1="21" y2="21" x2="101.921875"/><text x="5" y="31" fill="white" class="classText"/><line x1="0" y1="26" y2="26" x2="101.921875"/><text x="5" y="41" fill="white" class="classText"/></g><g id="classid-DynamicRadio-11" class="classGroup" transform="translate(486.2265625,415 )"><rect x="0" y="0" width="81.359375" height="30" class=" "/><text y="15" x="0"><tspan class="title" x="5">DynamicRadio</tspan></text><line x1="0" y1="21" y2="21" x2="81.359375"/><text x="5" y="31" fill="white" class="classText"/><line x1="0" y1="26" y2="26" x2="81.359375"/><text x="5" y="41" fill="white" class="classText"/></g><path d="M168.67558396464648,148L164.8051741372054,152.16666666666666C160.93476430976432,156.33333333333334,153.19394465488216,164.66666666666666,149.32353482744108,178C145.453125,191.33333333333334,145.453125,209.66666666666666,145.453125,218.83333333333334L145.453125,228" id="edge0" class="relation dashed-line" marker-start="url(#dependencyStart)"/><path d="M332.34375,120.12711376969976L350.4791666666667,128.9392614747498C368.6145833333333,137.75140917979982,404.8854166666667,155.37570458989993,423.0208333333333,168.35451896161663C441.15625,181.33333333333334,441.15625,189.66666666666666,441.15625,193.83333333333334L441.15625,198" id="edge1" class="relation" marker-start="url(#aggregationStart)"/><path d="M340.90625,313.3854573885848L317.6458333333333,322.98788115715405C294.3854166666667,332.5903049257232,247.86458333333334,351.7951524628616,224.60416666666666,365.56424289809746C201.34375,379.3333333333333,201.34375,387.6666666666667,201.34375,391.8333333333333L201.34375,396" id="edge2" class="relation" marker-start="url(#extensionStart)"/><path d="M399.37941919191917,346L397.0271201599326,350.1666666666667C394.67482112794613,354.3333333333333,389.97022306397304,362.6666666666667,387.61792403198655,374.1666666666667C385.265625,385.6666666666667,385.265625,400.3333333333333,385.265625,407.6666666666667L385.265625,415" id="edge3" class="relation" marker-start="url(#extensionStart)"/><path d="M505.2522095959596,346L508.8612163299663,350.1666666666667C512.4702230639731,354.3333333333333,519.6882365319865,362.6666666666667,523.2972432659932,374.1666666666667C526.90625,385.6666666666667,526.90625,400.3333333333333,526.90625,407.6666666666667L526.90625,415" id="edge4" class="relation" marker-start="url(#extensionStart)"/></svg>