<svg id="mermaid-1614984351857" width="100%" xmlns="http://www.w3.org/2000/svg" xmlns:xlink="http://www.w3.org/1999/xlink" height="534" style="max-width: 558.23828125px;" viewBox="-20 -20 558.23828125 534"><style>#mermaid-1614984351857{font-family:"trebuchet ms",verdana,arial,sans-serif;font-size:16px;fill:#333;}#mermaid-1614984351857 .error-icon{fill:#552222;}#mermaid-1614984351857 .error-text{fill:#552222;stroke:#552222;}#mermaid-1614984351857 .edge-thickness-normal{stroke-width:2px;}#mermaid-1614984351857 .edge-thickness-thick{stroke-width:3.5px;}#mermaid-1614984351857 .edge-pattern-solid{stroke-dasharray:0;}#mermaid-1614984351857 .edge-pattern-dashed{stroke-dasharray:3;}#mermaid-1614984351857 .edge-pattern-dotted{stroke-dasharray:2;}#mermaid-1614984351857 .marker{fill:#333333;stroke:#333333;}#mermaid-1614984351857 .marker.cross{stroke:#333333;}#mermaid-1614984351857 svg{font-family:"trebuchet ms",verdana,arial,sans-serif;font-size:16px;}#mermaid-1614984351857 g.classGroup text{fill:#9370DB;fill:#131300;stroke:none;font-family:"trebuchet ms",verdana,arial,sans-serif;font-size:10px;}#mermaid-1614984351857 g.classGroup text .title{font-weight:bolder;}#mermaid-1614984351857 .classTitle{font-weight:bolder;}#mermaid-1614984351857 .node rect,#mermaid-1614984351857 .node circle,#mermaid-1614984351857 .node ellipse,#mermaid-1614984351857 .node polygon,#mermaid-1614984351857 .node path{fill:#ECECFF;stroke:#9370DB;stroke-width:1px;}#mermaid-1614984351857 .divider{stroke:#9370DB;stroke:1;}#mermaid-1614984351857 g.clickable{cursor:pointer;}#mermaid-1614984351857 g.classGroup rect{fill:#ECECFF;stroke:#9370DB;}#mermaid-1614984351857 g.classGroup line{stroke:#9370DB;stroke-width:1;}#mermaid-1614984351857 .classLabel .box{stroke:none;stroke-width:0;fill:#ECECFF;opacity:0.5;}#mermaid-1614984351857 .classLabel .label{fill:#9370DB;font-size:10px;}#mermaid-1614984351857 .relation{stroke:#333333;stroke-width:1;fill:none;}#mermaid-1614984351857 .dashed-line{stroke-dasharray:3;}#mermaid-1614984351857 #compositionStart,#mermaid-1614984351857 .composition{fill:#333333 !important;stroke:#333333 !important;stroke-width:1;}#mermaid-1614984351857 #compositionEnd,#mermaid-1614984351857 .composition{fill:#333333 !important;stroke:#333333 !important;stroke-width:1;}#mermaid-1614984351857 #dependencyStart,#mermaid-1614984351857 .dependency{fill:#333333 !important;stroke:#333333 !important;stroke-width:1;}#mermaid-1614984351857 #dependencyStart,#mermaid-1614984351857 .dependency{fill:#333333 !important;stroke:#333333 !important;stroke-width:1;}#mermaid-1614984351857 #extensionStart,#mermaid-1614984351857 .extension{fill:#333333 !important;stroke:#333333 !important;stroke-width:1;}#mermaid-1614984351857 #extensionEnd,#mermaid-1614984351857 .extension{fill:#333333 !important;stroke:#333333 !important;stroke-width:1;}#mermaid-1614984351857 #aggregationStart,#mermaid-1614984351857 .aggregation{fill:#ECECFF !important;stroke:#333333 !important;stroke-width:1;}#mermaid-1614984351857 #aggregationEnd,#mermaid-1614984351857 .aggregation{fill:#ECECFF !important;stroke:#333333 !important;stroke-width:1;}#mermaid-1614984351857 .edgeTerminals{font-size:11px;}#mermaid-1614984351857:root{--mermaid-font-family:"trebuchet ms",verdana,arial,sans-serif;}#mermaid-1614984351857 class{fill:apa;}</style><g></g><defs><marker id="extensionStart" class="extension" refX="0" refY="7" markerWidth="190" markerHeight="240" orient="auto"><path d="M 1,7 L18,13 V 1 Z"></path></marker></defs><defs><marker id="extensionEnd" refX="19" refY="7" markerWidth="20" markerHeight="28" orient="auto"><path d="M 1,1 V 13 L18,7 Z"></path></marker></defs><defs><marker id="compositionStart" class="extension" refX="0" refY="7" markerWidth="190" markerHeight="240" orient="auto"><path d="M 18,7 L9,13 L1,7 L9,1 Z"></path></marker></defs><defs><marker id="compositionEnd" refX="19" refY="7" markerWidth="20" markerHeight="28" orient="auto"><path d="M 18,7 L9,13 L1,7 L9,1 Z"></path></marker></defs><defs><marker id="aggregationStart" class="extension" refX="0" refY="7" markerWidth="190" markerHeight="240" orient="auto"><path d="M 18,7 L9,13 L1,7 L9,1 Z"></path></marker></defs><defs><marker id="aggregationEnd" refX="19" refY="7" markerWidth="20" markerHeight="28" orient="auto"><path d="M 18,7 L9,13 L1,7 L9,1 Z"></path></marker></defs><defs><marker id="dependencyStart" class="extension" refX="0" refY="7" markerWidth="190" markerHeight="240" orient="auto"><path d="M 5,7 L9,13 L1,7 L9,1 Z"></path></marker></defs><defs><marker id="dependencyEnd" refX="19" refY="7" markerWidth="20" markerHeight="28" orient="auto"><path d="M 18,7 L9,13 L14,7 L9,1 Z"></path></marker></defs><g id="classid-DynamicForm-0" class="classGroup" transform="translate(109.6953125,0 )"><rect x="0" y="0" width="187.859375" height="178" class=" "></rect><text y="15" x="0"><tspan class="title" x="60.53125">DynamicForm</tspan></text><line x1="0" y1="21" y2="21" x2="187.859375"></line><text x="5" y="31" fill="white" class="classText"><tspan x="5">JSON config222</tspan><tspan x="5" dy="10">node htmlElement</tspan><tspan x="5" dy="10">Map&lt;String, DynamicElement&gt; entities</tspan><tspan x="5" dy="10">boolean debug</tspan><tspan x="5" dy="10">boolean enabled</tspan><tspan x="5" dy="10">json elementToClassMapping</tspan></text><line x1="0" y1="87" y2="87" x2="187.859375"></line><text x="5" y="102" fill="white" class="classText"><tspan x="5">notify(subjectName)</tspan><tspan x="5" dy="10">fetchAllParameters(rule) : object</tspan><tspan x="5" dy="10">clearCascade(currentSubject)</tspan><tspan x="5" dy="10">manualUpdate(data, subjectName)</tspan><tspan x="5" dy="10">getField(name) : DynamicElement</tspan><tspan x="5" dy="10">getId() : string</tspan><tspan x="5" dy="10">setEnabled() : void</tspan><tspan x="5" dy="10">isEnabled() : boolean</tspan></text></g><g id="classid-dynamicForms-1" class="classGroup" transform="translate(0,268 )"><rect x="0" y="0" width="225.328125" height="68" class=" "></rect><text y="15" x="0"><tspan class="title" x="76.875">dynamicForms</tspan></text><line x1="0" y1="21" y2="21" x2="225.328125"></line><text x="5" y="31" fill="white" class="classText"><tspan x="5">-Map&lt;String, DynamicForm&gt; formCollection</tspan></text><line x1="0" y1="37" y2="37" x2="225.328125"></line><text x="5" y="52" fill="white" class="classText"><tspan x="5">+makeForm(formConfiguration) : DynamicForm</tspan><tspan x="5" dy="10">+getForm(id) : DynamicForm</tspan></text></g><g id="classid-DynamicElement-2" class="classGroup" transform="translate(275.328125,228 )"><rect x="0" y="0" width="215.40625" height="148" class=" "></rect><text y="15" x="0"><tspan class="title" x="67.0703125">DynamicElement</tspan></text><line x1="0" y1="21" y2="21" x2="215.40625"></line><text x="5" y="31" fill="white" class="classText"><tspan x="5">-JSON config</tspan><tspan x="5" dy="10">-node htmlElement</tspan><tspan x="5" dy="10">-string name</tspan><tspan x="5" dy="10">-JSON defaultConfig</tspan></text><line x1="0" y1="67" y2="67" x2="215.40625"></line><text x="5" y="82" fill="white" class="classText"><tspan x="5">+get() : string</tspan><tspan x="5" dy="10">+set(value) : string</tspan><tspan x="5" dy="10">+clear()</tspan><tspan x="5" dy="10">+update(data, subjectName)</tspan><tspan x="5" dy="10">+beforeUpdate(data, subjectName) : boolean</tspan><tspan x="5" dy="10">+updateStatus(data, subjectName)</tspan><tspan x="5" dy="10">+afterUpdate(data, subjectName)</tspan></text></g><g id="classid-DynamicDropdown-3" class="classGroup" transform="translate(74.92578125,426 )"><rect x="0" y="0" width="163.921875" height="68" class=" "></rect><text y="15" x="0"><tspan class="title" x="36.3984375">DynamicDropdown</tspan></text><line x1="0" y1="21" y2="21" x2="163.921875"></line><text x="5" y="31" fill="white" class="classText"><tspan x="5">-string method</tspan></text><line x1="0" y1="37" y2="37" x2="163.921875"></line><text x="5" y="52" fill="white" class="classText"><tspan x="5">+postProcessData(data) : object[]</tspan><tspan x="5" dy="10">+saveData(data) : object[]</tspan></text></g><g id="classid-DynamicCheckbox-4" class="classGroup" transform="translate(288.84765625,445 )"><rect x="0" y="0" width="99.921875" height="30" class=" "></rect><text y="15" x="0"><tspan class="title" x="5">DynamicCheckbox</tspan></text><line x1="0" y1="21" y2="21" x2="99.921875"></line><text x="5" y="31" fill="white" class="classText"></text><line x1="0" y1="26" y2="26" x2="99.921875"></line><text x="5" y="41" fill="white" class="classText"></text></g><g id="classid-DynamicRadio-5" class="classGroup" transform="translate(438.76953125,445 )"><rect x="0" y="0" width="79.46875" height="30" class=" "></rect><text y="15" x="0"><tspan class="title" x="5">DynamicRadio</tspan></text><line x1="0" y1="21" y2="21" x2="79.46875"></line><text x="5" y="31" fill="white" class="classText"></text><line x1="0" y1="26" y2="26" x2="79.46875"></line><text x="5" y="41" fill="white" class="classText"></text></g><path d="M132.6116365131579,178L129.28704084429825,182.16666666666666C125.96244517543859,186.33333333333334,119.3132538377193,194.66666666666666,115.98865816885966,209.66666666666666C112.6640625,224.66666666666666,112.6640625,246.33333333333334,112.6640625,257.1666666666667L112.6640625,268" id="edge0" class="relation dashed-line" marker-start="url(#dependencyStart)"></path><path d="M297.5546875,148.68568193694477L311.80078125,157.7380682807873C326.046875,166.79045462462986,354.5390625,184.89522731231492,368.78515625,198.11428032282413C383.03125,211.33333333333334,383.03125,219.66666666666666,383.03125,223.83333333333334L383.03125,228" id="edge1" class="relation" marker-start="url(#aggregationStart)"></path><path d="M275.328125,349.14953448603455L255.587890625,357.7912787383621C235.84765625,366.4330229906897,196.3671875,383.71651149534483,176.626953125,396.5249224143391C156.88671875,409.3333333333333,156.88671875,417.6666666666667,156.88671875,421.8333333333333L156.88671875,426" id="edge2" class="relation" marker-start="url(#extensionStart)"></path><path d="M349.9759311868687,376L348.11470828072396,380.1666666666667C346.25348537457916,384.3333333333333,342.5310395622896,392.6666666666667,340.6698166561448,404.1666666666667C338.80859375,415.6666666666667,338.80859375,430.3333333333333,338.80859375,437.6666666666667L338.80859375,445" id="edge3" class="relation" marker-start="url(#extensionStart)"></path><path d="M454.3946496212121,376L458.4128590593434,380.1666666666667C462.43106849747477,384.3333333333333,470.46748737373736,392.6666666666667,474.48569681186865,404.1666666666667C478.50390625,415.6666666666667,478.50390625,430.3333333333333,478.50390625,437.6666666666667L478.50390625,445" id="edge4" class="relation" marker-start="url(#extensionStart)"></path></svg>