<svg id="mermaid-1613169032918" width="563.7421875" xmlns="http://www.w3.org/2000/svg" xmlns:xlink="http://www.w3.org/1999/xlink" height="534" viewBox="-20 -20 563.7421875 534"><style>#mermaid-1613169032918{font-family:"trebuchet ms",verdana,arial;font-size:16px;fill:#333;}#mermaid-1613169032918 .error-icon{fill:#552222;}#mermaid-1613169032918 .error-text{fill:#552222;stroke:#552222;}#mermaid-1613169032918 .edge-thickness-normal{stroke-width:2px;}#mermaid-1613169032918 .edge-thickness-thick{stroke-width:3.5px;}#mermaid-1613169032918 .edge-pattern-solid{stroke-dasharray:0;}#mermaid-1613169032918 .edge-pattern-dashed{stroke-dasharray:3;}#mermaid-1613169032918 .edge-pattern-dotted{stroke-dasharray:2;}#mermaid-1613169032918 .marker{fill:#333333;}#mermaid-1613169032918 .marker.cross{stroke:#333333;}#mermaid-1613169032918 svg{font-family:"trebuchet ms",verdana,arial;font-size:16px;}#mermaid-1613169032918 g.classGroup text{fill:#9370DB;fill:#131300;stroke:none;font-family:"trebuchet ms",verdana,arial;font-size:10px;}#mermaid-1613169032918 g.classGroup text .title{font-weight:bolder;}#mermaid-1613169032918 .node rect,#mermaid-1613169032918 .node circle,#mermaid-1613169032918 .node ellipse,#mermaid-1613169032918 .node polygon,#mermaid-1613169032918 .node path{fill:#ECECFF;stroke:#9370DB;stroke-width:1px;}#mermaid-1613169032918 .divider{stroke:#9370DB;stroke:1;}#mermaid-1613169032918 g.clickable{cursor:pointer;}#mermaid-1613169032918 g.classGroup rect{fill:#ECECFF;stroke:#9370DB;}#mermaid-1613169032918 g.classGroup line{stroke:#9370DB;stroke-width:1;}#mermaid-1613169032918 .classLabel .box{stroke:none;stroke-width:0;fill:#ECECFF;opacity:0.5;}#mermaid-1613169032918 .classLabel .label{fill:#9370DB;font-size:10px;}#mermaid-1613169032918 .relation{stroke:#333333;stroke-width:1;fill:none;}#mermaid-1613169032918 .dashed-line{stroke-dasharray:3;}#mermaid-1613169032918 #compositionStart,#mermaid-1613169032918 .composition{fill:#333333 !important;stroke:#333333 !important;stroke-width:1;}#mermaid-1613169032918 #compositionEnd,#mermaid-1613169032918 .composition{fill:#333333 !important;stroke:#333333 !important;stroke-width:1;}#mermaid-1613169032918 #dependencyStart,#mermaid-1613169032918 .dependency{fill:#333333 !important;stroke:#333333 !important;stroke-width:1;}#mermaid-1613169032918 #dependencyStart,#mermaid-1613169032918 .dependency{fill:#333333 !important;stroke:#333333 !important;stroke-width:1;}#mermaid-1613169032918 #extensionStart,#mermaid-1613169032918 .extension{fill:#333333 !important;stroke:#333333 !important;stroke-width:1;}#mermaid-1613169032918 #extensionEnd,#mermaid-1613169032918 .extension{fill:#333333 !important;stroke:#333333 !important;stroke-width:1;}#mermaid-1613169032918 #aggregationStart,#mermaid-1613169032918 .aggregation{fill:#ECECFF !important;stroke:#333333 !important;stroke-width:1;}#mermaid-1613169032918 #aggregationEnd,#mermaid-1613169032918 .aggregation{fill:#ECECFF !important;stroke:#333333 !important;stroke-width:1;}#mermaid-1613169032918:root{--mermaid-font-family:"trebuchet ms",verdana,arial;}#mermaid-1613169032918 class{fill:apa;}</style><g/><defs><marker id="extensionStart" class="extension" refX="0" refY="7" markerWidth="190" markerHeight="240" orient="auto"><path d="M 1,7 L18,13 V 1 Z"/></marker></defs><defs><marker id="extensionEnd" refX="19" refY="7" markerWidth="20" markerHeight="28" orient="auto"><path d="M 1,1 V 13 L18,7 Z"/></marker></defs><defs><marker id="compositionStart" class="extension" refX="0" refY="7" markerWidth="190" markerHeight="240" orient="auto"><path d="M 18,7 L9,13 L1,7 L9,1 Z"/></marker></defs><defs><marker id="compositionEnd" refX="19" refY="7" markerWidth="20" markerHeight="28" orient="auto"><path d="M 18,7 L9,13 L1,7 L9,1 Z"/></marker></defs><defs><marker id="aggregationStart" class="extension" refX="0" refY="7" markerWidth="190" markerHeight="240" orient="auto"><path d="M 18,7 L9,13 L1,7 L9,1 Z"/></marker></defs><defs><marker id="aggregationEnd" refX="19" refY="7" markerWidth="20" markerHeight="28" orient="auto"><path d="M 18,7 L9,13 L1,7 L9,1 Z"/></marker></defs><defs><marker id="dependencyStart" class="extension" refX="0" refY="7" markerWidth="190" markerHeight="240" orient="auto"><path d="M 5,7 L9,13 L1,7 L9,1 Z"/></marker></defs><defs><marker id="dependencyEnd" refX="19" refY="7" markerWidth="20" markerHeight="28" orient="auto"><path d="M 18,7 L9,13 L14,7 L9,1 Z"/></marker></defs><g id="classid-DynamicForm-0" class="classGroup" transform="translate(110.53125,0 )"><rect x="0" y="0" width="189.859375" height="178" class=" "/><text y="15" x="0"><tspan class="title" x="60.53125">DynamicForm</tspan></text><line x1="0" y1="21" y2="21" x2="189.859375"/><text x="5" y="31" fill="white" class="classText"><tspan x="5">JSON config</tspan><tspan x="5" dy="10">node htmlElement</tspan><tspan x="5" dy="10">Map&lt;String, DynamicElement&gt; entities</tspan><tspan x="5" dy="10">boolean debug</tspan><tspan x="5" dy="10">boolean enabled</tspan><tspan x="5" dy="10">json elementToClassMapping</tspan></text><line x1="0" y1="87" y2="87" x2="189.859375"/><text x="5" y="102" fill="white" class="classText"><tspan x="5">notify(subjectName)</tspan><tspan x="5" dy="10">fetchAllParameters(rule) : object</tspan><tspan x="5" dy="10">clearCascade(currentSubject)</tspan><tspan x="5" dy="10">manualUpdate(data, subjectName)</tspan><tspan x="5" dy="10">getField(name) : DynamicElement</tspan><tspan x="5" dy="10">getId() : string</tspan><tspan x="5" dy="10">setEnabled() : void</tspan><tspan x="5" dy="10">isEnabled() : boolean</tspan></text></g><g id="classid-dynamicForms-1" class="classGroup" transform="translate(0,268 )"><rect x="0" y="0" width="227" height="68" class=" "/><text y="15" x="0"><tspan class="title" x="76.7109375">dynamicForms</tspan></text><line x1="0" y1="21" y2="21" x2="227"/><text x="5" y="31" fill="white" class="classText"><tspan x="5">-Map&lt;String, DynamicForm&gt; formCollection</tspan></text><line x1="0" y1="37" y2="37" x2="227"/><text x="5" y="52" fill="white" class="classText"><tspan x="5">+makeForm(formConfiguration) : DynamicForm</tspan><tspan x="5" dy="10">+getForm(id) : DynamicForm</tspan></text></g><g id="classid-DynamicElement-2" class="classGroup" transform="translate(277,228 )"><rect x="0" y="0" width="216.84375" height="148" class=" "/><text y="15" x="0"><tspan class="title" x="66.7890625">DynamicElement</tspan></text><line x1="0" y1="21" y2="21" x2="216.84375"/><text x="5" y="31" fill="white" class="classText"><tspan x="5">-JSON config</tspan><tspan x="5" dy="10">-node htmlElement</tspan><tspan x="5" dy="10">-string name</tspan><tspan x="5" dy="10">-JSON defaultConfig</tspan></text><line x1="0" y1="67" y2="67" x2="216.84375"/><text x="5" y="82" fill="white" class="classText"><tspan x="5">+get() : string</tspan><tspan x="5" dy="10">+set(value) : string</tspan><tspan x="5" dy="10">+clear()</tspan><tspan x="5" dy="10">+update(data, subjectName)</tspan><tspan x="5" dy="10">+beforeUpdate(data, subjectName) : boolean</tspan><tspan x="5" dy="10">+updateStatus(data, subjectName)</tspan><tspan x="5" dy="10">+afterUpdate(data, subjectName)</tspan></text></g><g id="classid-DynamicDropdown-3" class="classGroup" transform="translate(74.5390625,426 )"><rect x="0" y="0" width="165.921875" height="68" class=" "/><text y="15" x="0"><tspan class="title" x="36.453125">DynamicDropdown</tspan></text><line x1="0" y1="21" y2="21" x2="165.921875"/><text x="5" y="31" fill="white" class="classText"><tspan x="5">-string method</tspan></text><line x1="0" y1="37" y2="37" x2="165.921875"/><text x="5" y="52" fill="white" class="classText"><tspan x="5">+postProcessData(data) : object[]</tspan><tspan x="5" dy="10">+saveData(data) : object[]</tspan></text></g><g id="classid-DynamicCheckbox-4" class="classGroup" transform="translate(290.4609375,445 )"><rect x="0" y="0" width="101.921875" height="30" class=" "/><text y="15" x="0"><tspan class="title" x="5">DynamicCheckbox</tspan></text><line x1="0" y1="21" y2="21" x2="101.921875"/><text x="5" y="31" fill="white" class="classText"/><line x1="0" y1="26" y2="26" x2="101.921875"/><text x="5" y="41" fill="white" class="classText"/></g><g id="classid-DynamicRadio-5" class="classGroup" transform="translate(442.3828125,445 )"><rect x="0" y="0" width="81.359375" height="30" class=" "/><text y="15" x="0"><tspan class="title" x="5">DynamicRadio</tspan></text><line x1="0" y1="21" y2="21" x2="81.359375"/><text x="5" y="31" fill="white" class="classText"/><line x1="0" y1="26" y2="26" x2="81.359375"/><text x="5" y="41" fill="white" class="classText"/></g><path d="M133.66687225877195,178L130.30572688230995,182.16666666666666C126.94458150584796,186.33333333333334,120.22229075292398,194.66666666666666,116.86114537646199,209.66666666666666C113.5,224.66666666666666,113.5,246.33333333333334,113.5,257.1666666666667L113.5,268" id="edge0" class="relation dashed-line" marker-start="url(#dependencyStart)"/><path d="M300.390625,149.13518558714998L314.5625,158.11265465595832C328.734375,167.09012372476664,357.078125,185.04506186238333,371.25,198.1891975978583C385.421875,211.33333333333334,385.421875,219.66666666666666,385.421875,223.83333333333334L385.421875,228" id="edge1" class="relation" marker-start="url(#aggregationStart)"/><path d="M277,349.0940563515459L257.0833333333333,357.74504695962156C237.16666666666666,366.39603756769725,197.33333333333334,383.6980187838487,177.41666666666666,396.515676058591C157.5,409.3333333333333,157.5,417.6666666666667,157.5,421.8333333333333L157.5,426" id="edge2" class="relation" marker-start="url(#extensionStart)"/><path d="M352.5329861111111,376L350.6811342592593,380.1666666666667C348.8292824074074,384.3333333333333,345.1255787037037,392.6666666666667,343.2737268518519,404.1666666666667C341.421875,415.6666666666667,341.421875,430.3333333333333,341.421875,437.6666666666667L341.421875,445" id="edge3" class="relation" marker-start="url(#extensionStart)"/><path d="M458.4057765151515,376L462.5152304292929,380.1666666666667C466.62468434343435,384.3333333333333,474.84359217171715,392.6666666666667,478.9530460858586,404.1666666666667C483.0625,415.6666666666667,483.0625,430.3333333333333,483.0625,437.6666666666667L483.0625,445" id="edge4" class="relation" marker-start="url(#extensionStart)"/></svg>